# xmcd
#
# Track frame offsets: 
#        150
#        18089
#        36481
#        56560
#        74905
#        96469
#        122664
#        140863
#        162548
#        178483
#        201819
#        224911
#
# Disc length: 3338 seconds
#
# Revision: 10
# Processed by: cddbd v1.5.2PL0 Copyright (c) Steve Scherf et al.
# Submitted via: ExactAudioCopy v1.3
#
DISCID=cf0d080c
DTITLE=Diana Krall - The girl in the other room
DYEAR=2004
DGENRE=Jazz
TTITLE0=Diana Krall - Stop this world
TTITLE1=The girl in the other room
TTITLE2=Temptation
TTITLE3=Almost blue
TTITLE4=I've changed my address
TTITLE5=Love me like a man
TTITLE6=I'm pulling through
TTITLE7=Black crow
TTITLE8=Narrow daylight
TTITLE9=Abandoned masquerade
TTITLE10=I'm coming through
TTITLE11=Departure bay
EXTD=
EXTT0=
EXTT1=
EXTT2=
EXTT3=
EXTT4=
EXTT5=
EXTT6=
EXTT7=
EXTT8=
EXTT9=
EXTT10=
EXTT11=
PLAYORDER=
